PathFileType	4	(X/Y/Z)	/Users/rkoike/Documents/python/sports2d/webcam_20250611_152632/webcam_20250611_152632_px_person01.trc
DataRate	CameraRate	NumFrames	NumMarkers	Units	OrigDataRate	OrigDataStartFrame	OrigNumFrames
30	30	9	22	m	30	310	2485
Frame#	Time	Hip			RHip			RKnee			RAnkle			RBigToe			RSmallToe			RHeel			LHip			LKnee			LAnkle			LBigToe			LSmallToe			LHeel			Neck			Head			Nose			RShoulder			RElbow			RWrist			LShoulder			LElbow			LWrist			
		X1	Y1	Z1	X2	Y2	Z2	X3	Y3	Z3	X4	Y4	Z4	X5	Y5	Z5	X6	Y6	Z6	X7	Y7	Z7	X8	Y8	Z8	X9	Y9	Z9	X10	Y10	Z10	X11	Y11	Z11	X12	Y12	Z12	X13	Y13	Z13	X14	Y14	Z14	X15	Y15	Z15	X16	Y16	Z16	X17	Y17	Z17	X18	Y18	Z18	X19	Y19	Z19	X20	Y20	Z20	X21	Y21	Z21	X22	Y22	Z22
310	10.337493290391839	286.2578717104492	505.1542877946984	0.0	261.49724452951256	505.1555382582781	0.0	274.6701814252316	670.256765601607	0.0	266.40844184384684	718.1443914862191	0.0	363.25712163209926	713.1610435906421	0.0	857.07666015625	89.9901123046875	0.0	248.1253068517305	721.4493499555635	0.0	311.01686961677404	505.15194575559457	0.0	344.0951294607831	643.8300886684428	0.0	287.9508442371833	714.8427996470025	0.0	310.90690453400543	736.3085857857402	0.0	319.2811314117501	729.7076303048057	0.0	253.23210138929872	716.4959625189107	0.0	287.8996264918462	283.9133375496191	0.0	325.87791708148166	186.50361964360908	0.0	344.0348576954657	249.24347382310512	0.0	246.63816954791764	298.77146245327555	0.0	235.10435153814473	412.70336199176046	0.0	249.93232121650252	515.0909424342885	0.0	312.6500513768008	308.6752432306178	0.0	363.8296219700026	392.8826189861156	0.0	363.8402593215374	307.0388387982724	0.0
311	10.370840042941492	286.2128219629018	505.15775409454244	0.0	261.4498580254235	505.1580551111979	0.0	274.6274771352069	670.2565105541787	0.0	266.37261974868153	718.1416354104579	0.0	363.25712163209926	713.1610435906421	0.0	857.07666015625	89.9901123046875	0.0	248.20516612381496	721.4462684995118	0.0	310.97415584433867	505.15618584726855	0.0	344.0321220663406	643.8367906771348	0.0	287.9125919436039	714.8369595881954	0.0	310.9066310882394	736.3086363553292	0.0	319.2728006279754	729.705173390386	0.0	253.2338104886664	716.487779762981	0.0	287.8573887387045	283.9159768398024	0.0	325.83185645933366	186.50856689961344	0.0	343.993007921378	249.24599007477858	0.0	246.59246000062035	298.7749398278203	0.0	235.06027318447627	412.70266370353335	0.0	249.95674248455163	515.0722673056515	0.0	312.6137094741789	308.6791485040849	0.0	363.793774460895	392.8859768173578	0.0	363.7991069031618	307.0388737657509	0.0
312	10.404186795491142	286.16940634425026	505.1632937280638	0.0	261.4043392257939	505.163160101542	0.0	274.6079589525933	670.2621038964556	0.0	266.35434362390214	718.1416070311874	0.0	363.25712163209926	713.1610435906421	0.0	857.07666015625	89.9901123046875	0.0	248.2149017460983	721.4439958125793	0.0	310.9341901499421	505.1631728258178	0.0	343.95676249233776	643.8468592298636	0.0	287.83020685591947	714.8385432196272	0.0	310.930770794964	736.3041720878239	0.0	319.203492231597	729.6997841769445	0.0	253.1657316694006	716.4890507938245	0.0	287.81983699969544	283.9281092419802	0.0	325.7922870054195	186.51998200825423	0.0	343.9541109036111	249.2573126341746	0.0	246.54596794248994	298.78724486222507	0.0	234.993614853418	412.70677351086374	0.0	249.87251494972375	515.0664222255879	0.0	312.58444704299666	308.693002770777	0.0	363.7653054443802	392.8947830098932	0.0	363.7651929672144	307.0431104582687	0.0
313	10.437533548040793	286.1621845329749	505.1646620183362	0.0	261.396797805215	505.16455369588715	0.0	274.60910862074616	670.2642207318519	0.0	266.35460462453784	718.1421362272093	0.0	363.25712163209926	713.1610435906421	0.0	857.07666015625	89.9901123046875	0.0	248.20286162479215	721.4437593900503	0.0	310.92778575949734	505.1649244291039	0.0	343.94125290444356	643.849267477139	0.0	287.80725371066256	714.8402719900743	0.0	310.9397446224575	736.3025125164407	0.0	319.1795121800167	729.6982738174835	0.0	253.14024001335346	716.4911227867026	0.0	287.81423141979684	283.9320756822498	0.0	325.7866844024427	186.52323145295225	0.0	343.94793223398636	249.26100390823845	0.0	246.53773850176054	298.79111098474226	0.0	234.9776140093997	412.7084289329948	0.0	249.83660850167107	515.0679191921045	0.0	312.5807500891081	308.6973575877058	0.0	363.76180486891457	392.8973796230076	0.0	363.7607191295398	307.0446691849617	0.0
314	10.470880300590444	286.1680173363012	505.1640828917662	0.0	261.40292434003567	505.1640690298282	0.0	274.61335542144167	670.26390769618	0.0	266.35827982381653	718.1423373367344	0.0	363.25712163209926	713.1610435906421	0.0	857.07666015625	89.9901123046875	0.0	248.19650608252735	721.4441170532647	0.0	310.93324507282284	505.1642035342884	0.0	343.95027827579406	643.8481858096106	0.0	287.81490418975096	714.8406007181662	0.0	310.9383337635204	736.3027734331031	0.0	319.1842225674773	729.6987709909836	0.0	253.14415105106133	716.4916395569863	0.0	287.81951322509394	283.9311656755413	0.0	325.7923624080759	186.5221969540958	0.0	343.95326569365864	249.26015080002512	0.0	246.5438013736064	298.7901301037753	0.0	234.98475400807484	412.708235891942	0.0	249.8398331608497	515.0696169207336	0.0	312.5851140072495	308.69625392867874	0.0	363.766085991201	392.8966147517747	0.0	363.7657068055737	307.04441556618394	0.0
315	10.504227053140095	286.17158686093853	505.16360095590875	0.0	261.4066649910253	505.1636170447808	0.0	274.61469960747615	670.2633775112976	0.0	266.3595868025417	718.1423080273136	0.0	363.25712163209926	713.1610435906421	0.0	857.07666015625	89.9901123046875	0.0	248.1965151805966	721.4442955148602	0.0	310.93651651883715	505.1635941524721	0.0	343.9566504186053	643.8473145311892	0.0	287.82222583772017	714.8403836717788	0.0	310.93605519609173	736.3031948191061	0.0	319.19065885549173	729.6992504623175	0.0	253.15058795336387	716.4914247889919	0.0	287.8225626573757	283.93005271182085	0.0	325.79555766430076	186.52117838611727	0.0	343.9564464336194	249.25911274372302	0.0	246.54765322454	298.78901059386817	0.0	234.99052564973408	412.70784040032373	0.0	249.8480558074132	515.069951148376	0.0	312.58745051613556	308.6949933548725	0.0	363.76835345077114	392.89582365326646	0.0	363.7684259361302	307.04401662392394	0.0
316	10.537573805689746	286.17176374347605	505.1635362694974	0.0	261.40684759219306	505.16354492916133	0.0	274.6143647307115	670.2632428907715	0.0	266.35935010519637	718.1422578162752	0.0	363.25712163209926	713.1610435906421	0.0	857.07666015625	89.9901123046875	0.0	248.1977630576202	721.4442914252284	0.0	310.93665638837354	505.16351013173977	0.0	343.95723779030345	643.8472043774572	0.0	287.82343330307725	714.8402390970708	0.0	310.9354894713939	736.3032994411885	0.0	319.1921148722441	729.6993302857188	0.0	253.152200722354	716.4912442345967	0.0	287.82265524562087	283.9298196348683	0.0	325.79562655623397	186.5210045684943	0.0	343.9565774289085	249.25889620549293	0.0	246.5478893833422	298.7887889762138	0.0	234.9912603054105	412.7077320558146	0.0	249.85046286149753	515.0697422126988	0.0	312.58745939639556	308.69474365211886	0.0	363.7683530281478	392.89568109451506	0.0	363.7684540639763	307.0439188663786	0.0
317	10.570920558239397	286.17113013740556	505.16360673671073	0.0	261.40618259008437	505.16360678623977	0.0	274.6139777718326	670.2632969633321	0.0	266.3590067120766	718.142245001167	0.0	363.25712163209926	713.1610435906421	0.0	857.07666015625	89.9901123046875	0.0	248.19822240079904	721.4442549684128	0.0	310.9360674734638	505.1635984103135	0.0	343.9562070745409	643.8473342826425	0.0	287.822445800869	714.8402281738512	0.0	310.93572659993487	736.3032555879117	0.0	319.19139258397155	729.6992658946299	0.0	253.15153623803755	716.4912195697525	0.0	287.8220923327568	283.92995144233737	0.0	325.7950263323146	186.52113978973856	0.0	343.9560029963919	249.25901945642326	0.0	246.5472223975494	298.7889263000535	0.0	234.99040160267117	412.70776946302533	0.0	249.84974221048373	515.069599558222	0.0	312.5870051527421	308.69489822027344	0.0	363.7679088677653	392.8957833246717	0.0	363.7679320094978	307.04396086145215	0.0
318	10.604267310789048	286.17086136623584	505.16364544289104	0.0	261.4059010974214	505.1636437654951	0.0	274.61390035406527	670.263343305438	0.0	266.358926167977	718.1422500977441	0.0	363.25712163209926	713.1610435906421	0.0	857.07666015625	89.9901123046875	0.0	248.19814778675055	721.4442422974356	0.0	310.93582246462876	505.163647484243	0.0	343.95571118024066	643.8474038559964	0.0	287.8218444510784	714.840252447422	0.0	310.93592500320756	736.3032188962778	0.0	319.1908405677225	729.6992264696835	0.0	253.15097488738166	716.4912458108048	0.0	287.8218661908093	283.93004578893533	0.0	325.79479104302084	186.52122379391201	0.0	343.9557650769147	249.25910740260414	0.0	246.54692968443453	298.78902044119076	0.0	234.98994043137512	412.7078045015711	0.0	249.8490045711937	515.0695877563758	0.0	312.5868355583817	308.69500423316094	0.0	363.76774482110034	392.8958490167568	0.0	363.76773358820134	307.0439955222449	0.0
